<svg xmlns="http://www.w3.org/2000/svg" viewBox="0 0 1078 2399" width="1078" height="2399" role="img" aria-label="meshcore-components/CachedDeviceBodyDarkPreview layout wireframe">
  <title>meshcore-components/CachedDeviceBodyDarkPreview — layout wireframe (slots + tokens)</title>
  <rect width="1078" height="2399" fill="#ffffff"/>
  <g>
    <rect x="0" y="0" width="1078" height="2399" fill="none" fill-opacity="0" stroke="#5B6470" stroke-width="1" stroke-opacity="0.5"/>
  </g>
  <g>
    <rect x="0" y="0" width="1078" height="2399" fill="none" fill-opacity="0" stroke="#2E7D6B" stroke-width="1" stroke-opacity="0.5"/>
  </g>
  <g>
    <rect x="0" y="0" width="1078" height="2399" fill="#1C1B1F" fill-opacity="1" stroke="#8E6BA8" stroke-width="1.5" stroke-opacity="1"/>
    <text x="3" y="12" font-family="system-ui, sans-serif" font-size="9" fill="#8E6BA8">#FF1C1B1F</text>
  </g>
  <g>
    <rect x="0" y="0" width="1078" height="2399" fill="#0E1513" fill-opacity="1" stroke="#B0813B" stroke-width="1.5" stroke-opacity="1"/>
    <text x="3" y="12" font-family="system-ui, sans-serif" font-size="9" fill="#B0813B">#FF0E1513</text>
  </g>
  <g>
    <rect x="0" y="0" width="1078" height="2399" fill="none" fill-opacity="0" stroke="#3B72A8" stroke-width="1" stroke-opacity="0.5"/>
  </g>
  <g>
    <rect x="0" y="0" width="1078" height="2399" fill="none" fill-opacity="0" stroke="#A85B6B" stroke-width="1" stroke-opacity="0.5"/>
  </g>
  <g>
    <rect x="42" y="189" width="994" height="2189" fill="none" fill-opacity="0" stroke="#4F8A4A" stroke-width="1" stroke-opacity="0.5"/>
  </g>
  <g>
    <path d="M73.5,189 H1004.5 A31.5,31.5 0 0 1 1036,220.5 V606.5 A31.5,31.5 0 0 1 1004.5,638 H73.5 A31.5,31.5 0 0 1 42,606.5 V220.5 A31.5,31.5 0 0 1 73.5,189 Z" fill="#1A211F" fill-opacity="1" stroke="#7A7A33" stroke-width="1.5" stroke-opacity="1"/>
    <text x="45" y="201" font-family="system-ui, sans-serif" font-size="9" fill="#7A7A33">#FF1A211F</text>
  </g>
  <g>
    <rect x="42" y="189" width="994" height="449" fill="none" fill-opacity="0" stroke="#5B6470" stroke-width="1" stroke-opacity="0.5"/>
  </g>
  <g>
    <rect x="84" y="231" width="910" height="365" fill="none" fill-opacity="0" stroke="#2E7D6B" stroke-width="1" stroke-opacity="0.5"/>
  </g>
  <g>
    <rect x="84" y="231" width="316" height="66" fill="none" fill-opacity="0" stroke="#8E6BA8" stroke-width="1" stroke-opacity="0.5"/>
  </g>
  <g>
    <rect x="84" y="323" width="428" height="47" fill="none" fill-opacity="0" stroke="#8E6BA8" stroke-width="1" stroke-opacity="0.5"/>
  </g>
  <g>
    <rect x="84" y="326" width="42" height="42" fill="none" fill-opacity="0" stroke="#B0813B" stroke-width="1" stroke-opacity="0.5"/>
  </g>
  <g>
    <rect x="126" y="323" width="21" height="47" fill="none" fill-opacity="0" stroke="#B0813B" stroke-width="1" stroke-opacity="0.5"/>
  </g>
  <g>
    <rect x="147" y="325" width="365" height="43" fill="none" fill-opacity="0" stroke="#B0813B" stroke-width="1" stroke-opacity="0.5"/>
  </g>
  <g>
    <rect x="84" y="396" width="760" height="47" fill="none" fill-opacity="0" stroke="#8E6BA8" stroke-width="1" stroke-opacity="0.5"/>
  </g>
  <g>
    <rect x="84" y="399" width="42" height="42" fill="none" fill-opacity="0" stroke="#B0813B" stroke-width="1" stroke-opacity="0.5"/>
  </g>
  <g>
    <rect x="126" y="396" width="21" height="47" fill="none" fill-opacity="0" stroke="#B0813B" stroke-width="1" stroke-opacity="0.5"/>
  </g>
  <g>
    <rect x="147" y="396" width="697" height="47" fill="none" fill-opacity="0" stroke="#B0813B" stroke-width="1" stroke-opacity="0.5"/>
  </g>
  <g>
    <rect x="84" y="469" width="910" height="127" fill="none" fill-opacity="0" stroke="#8E6BA8" stroke-width="1" stroke-opacity="0.5"/>
  </g>
  <g>
    <rect x="84" y="469" width="324" height="47" fill="none" fill-opacity="0" stroke="#B0813B" stroke-width="1" stroke-opacity="0.5"/>
  </g>
  <g>
    <rect x="84" y="469" width="47" height="47" fill="none" fill-opacity="0" stroke="#3B72A8" stroke-width="1" stroke-opacity="0.5"/>
  </g>
  <g>
    <rect x="131" y="469" width="277" height="47" fill="none" fill-opacity="0" stroke="#3B72A8" stroke-width="1" stroke-opacity="0.5"/>
  </g>
  <g>
    <rect x="84" y="527" width="910" height="11" fill="none" fill-opacity="0" stroke="#B0813B" stroke-width="1" stroke-opacity="0.5"/>
  </g>
  <g>
    <rect x="84" y="549" width="280" height="47" fill="none" fill-opacity="0" stroke="#B0813B" stroke-width="1" stroke-opacity="0.5"/>
  </g>
  <g>
    <rect x="84" y="552" width="42" height="42" fill="none" fill-opacity="0" stroke="#3B72A8" stroke-width="1" stroke-opacity="0.5"/>
  </g>
  <g>
    <rect x="126" y="549" width="21" height="47" fill="none" fill-opacity="0" stroke="#3B72A8" stroke-width="1" stroke-opacity="0.5"/>
  </g>
  <g>
    <rect x="147" y="553" width="217" height="40" fill="none" fill-opacity="0" stroke="#3B72A8" stroke-width="1" stroke-opacity="0.5"/>
  </g>
  <g>
    <path d="M63,670 H1015 A21,21 0 0 1 1036,691 V776 A21,21 0 0 1 1015,797 H63 A21,21 0 0 1 42,776 V691 A21,21 0 0 1 63,670 Z" fill="#584419" fill-opacity="1" stroke="#7A7A33" stroke-width="1.5" stroke-opacity="1"/>
    <text x="45" y="682" font-family="system-ui, sans-serif" font-size="9" fill="#7A7A33">#FF584419</text>
  </g>
  <g>
    <rect x="74" y="702" width="930" height="63" fill="none" fill-opacity="0" stroke="#5B6470" stroke-width="1" stroke-opacity="0.5"/>
  </g>
  <g>
    <rect x="74" y="710" width="47" height="47" fill="none" fill-opacity="0" stroke="#2E7D6B" stroke-width="1" stroke-opacity="0.5"/>
  </g>
  <g>
    <rect x="121" y="723" width="21" height="21" fill="none" fill-opacity="0" stroke="#2E7D6B" stroke-width="1" stroke-opacity="0.5"/>
  </g>
  <g>
    <rect x="142" y="714" width="799" height="40" fill="none" fill-opacity="0" stroke="#2E7D6B" stroke-width="1" stroke-opacity="0.5"/>
  </g>
  <g>
    <path d="M973.5,703 H973.5 A31.5,31.5 0 0 1 1005,734.5 V734.5 A31.5,31.5 0 0 1 973.5,766 H973.5 A31.5,31.5 0 0 1 942,734.5 V734.5 A31.5,31.5 0 0 1 973.5,703 Z" fill="none" fill-opacity="0" stroke="#2E7D6B" stroke-width="1.5" stroke-opacity="1"/>
  </g>
  <g>
    <rect x="953" y="714" width="42" height="42" fill="none" fill-opacity="0" stroke="#8E6BA8" stroke-width="1" stroke-opacity="0.5"/>
  </g>
  <g>
    <rect x="42" y="840" width="994" height="126" fill="none" fill-opacity="0" stroke="#7A7A33" stroke-width="1" stroke-opacity="0.5"/>
  </g>
  <g>
    <rect x="42" y="880" width="657" height="47" fill="none" fill-opacity="0" stroke="#5B6470" stroke-width="1" stroke-opacity="0.5"/>
  </g>
  <g>
    <path d="M720,861 H962 A21,21 0 0 1 983,882 V924 A21,21 0 0 1 962,945 H720 A21,21 0 0 1 699,924 V882 A21,21 0 0 1 720,861 Z" fill="#324B47" fill-opacity="1" stroke="#000000" stroke-width="1.5" stroke-opacity="1"/>
    <text x="702" y="873" font-family="system-ui, sans-serif" font-size="9" fill="#000000">#FF324B47</text>
  </g>
  <g>
    <rect x="720" y="861" width="242" height="84" fill="none" fill-opacity="0" stroke="#2E7D6B" stroke-width="1" stroke-opacity="0.5"/>
  </g>
  <g>
    <rect x="741" y="880" width="200" height="47" fill="none" fill-opacity="0" stroke="#8E6BA8" stroke-width="1" stroke-opacity="0.5"/>
  </g>
  <g>
    <rect x="741" y="880" width="200" height="47" fill="none" fill-opacity="0" stroke="#B0813B" stroke-width="1" stroke-opacity="0.5"/>
  </g>
  <g>
    <rect x="983" y="877" width="53" height="53" fill="none" fill-opacity="0" stroke="#5B6470" stroke-width="1" stroke-opacity="0.5"/>
  </g>
  <g>
    <rect x="42" y="1009" width="994" height="151" fill="none" fill-opacity="0" stroke="#7A7A33" stroke-width="1" stroke-opacity="0.5"/>
  </g>
  <g>
    <rect x="42" y="1009" width="994" height="151" fill="none" fill-opacity="0" stroke="#5B6470" stroke-width="1" stroke-opacity="0.5"/>
  </g>
  <g>
    <path d="M73.5,1009 H1004.5 A31.5,31.5 0 0 1 1036,1040.5 V1128.5 A31.5,31.5 0 0 1 1004.5,1160 H73.5 A31.5,31.5 0 0 1 42,1128.5 V1040.5 A31.5,31.5 0 0 1 73.5,1009 Z" fill="#161D1B" fill-opacity="1" stroke="#2E7D6B" stroke-width="1.5" stroke-opacity="1"/>
    <text x="45" y="1021" font-family="system-ui, sans-serif" font-size="9" fill="#2E7D6B">#FF161D1B</text>
  </g>
  <g>
    <rect x="42" y="1009" width="994" height="151" fill="none" fill-opacity="0" stroke="#8E6BA8" stroke-width="1" stroke-opacity="0.5"/>
  </g>
  <g>
    <rect x="74" y="1035" width="288" height="99" fill="none" fill-opacity="0" stroke="#B0813B" stroke-width="1" stroke-opacity="0.5"/>
  </g>
  <g>
    <path d="M121.5,1037 H121.5 A47.5,47.5 0 0 1 169,1084.5 V1084.5 A47.5,47.5 0 0 1 121.5,1132 H121.5 A47.5,47.5 0 0 1 74,1084.5 V1084.5 A47.5,47.5 0 0 1 121.5,1037 Z" fill="#584419" fill-opacity="1" stroke="#3B72A8" stroke-width="1.5" stroke-opacity="1"/>
    <text x="77" y="1049" font-family="system-ui, sans-serif" font-size="9" fill="#3B72A8">#FF584419</text>
  </g>
  <g>
    <rect x="74" y="1037" width="95" height="95" fill="none" fill-opacity="0" stroke="#A85B6B" stroke-width="1" stroke-opacity="0.5"/>
  </g>
  <g>
    <rect x="95" y="1058" width="53" height="53" fill="none" fill-opacity="0" stroke="#4F8A4A" stroke-width="1" stroke-opacity="0.5"/>
  </g>
  <g>
    <rect x="201" y="1035" width="161" height="99" fill="none" fill-opacity="0" stroke="#3B72A8" stroke-width="1" stroke-opacity="0.5"/>
  </g>
  <g>
    <rect x="201" y="1035" width="157" height="54" fill="none" fill-opacity="0" stroke="#A85B6B" stroke-width="1" stroke-opacity="0.5"/>
  </g>
  <g>
    <rect x="201" y="1094" width="161" height="40" fill="none" fill-opacity="0" stroke="#A85B6B" stroke-width="1" stroke-opacity="0.5"/>
  </g>
  <g>
    <rect x="42" y="1203" width="994" height="126" fill="none" fill-opacity="0" stroke="#7A7A33" stroke-width="1" stroke-opacity="0.5"/>
  </g>
  <g>
    <rect x="42" y="1243" width="657" height="47" fill="none" fill-opacity="0" stroke="#5B6470" stroke-width="1" stroke-opacity="0.5"/>
  </g>
  <g>
    <path d="M720,1224 H962 A21,21 0 0 1 983,1245 V1287 A21,21 0 0 1 962,1308 H720 A21,21 0 0 1 699,1287 V1245 A21,21 0 0 1 720,1224 Z" fill="#324B47" fill-opacity="1" stroke="#000000" stroke-width="1.5" stroke-opacity="1"/>
    <text x="702" y="1236" font-family="system-ui, sans-serif" font-size="9" fill="#000000">#FF324B47</text>
  </g>
  <g>
    <rect x="720" y="1224" width="242" height="84" fill="none" fill-opacity="0" stroke="#2E7D6B" stroke-width="1" stroke-opacity="0.5"/>
  </g>
  <g>
    <rect x="741" y="1243" width="200" height="47" fill="none" fill-opacity="0" stroke="#8E6BA8" stroke-width="1" stroke-opacity="0.5"/>
  </g>
  <g>
    <rect x="741" y="1243" width="200" height="47" fill="none" fill-opacity="0" stroke="#B0813B" stroke-width="1" stroke-opacity="0.5"/>
  </g>
  <g>
    <rect x="983" y="1240" width="53" height="53" fill="none" fill-opacity="0" stroke="#5B6470" stroke-width="1" stroke-opacity="0.5"/>
  </g>
  <g>
    <rect x="42" y="1372" width="994" height="151" fill="none" fill-opacity="0" stroke="#7A7A33" stroke-width="1" stroke-opacity="0.5"/>
  </g>
  <g>
    <rect x="42" y="1372" width="994" height="151" fill="none" fill-opacity="0" stroke="#5B6470" stroke-width="1" stroke-opacity="0.5"/>
  </g>
  <g>
    <path d="M73.5,1372 H1004.5 A31.5,31.5 0 0 1 1036,1403.5 V1491.5 A31.5,31.5 0 0 1 1004.5,1523 H73.5 A31.5,31.5 0 0 1 42,1491.5 V1403.5 A31.5,31.5 0 0 1 73.5,1372 Z" fill="#161D1B" fill-opacity="1" stroke="#2E7D6B" stroke-width="1.5" stroke-opacity="1"/>
    <text x="45" y="1384" font-family="system-ui, sans-serif" font-size="9" fill="#2E7D6B">#FF161D1B</text>
  </g>
  <g>
    <rect x="42" y="1372" width="994" height="151" fill="none" fill-opacity="0" stroke="#8E6BA8" stroke-width="1" stroke-opacity="0.5"/>
  </g>
  <g>
    <rect x="74" y="1398" width="369" height="99" fill="none" fill-opacity="0" stroke="#B0813B" stroke-width="1" stroke-opacity="0.5"/>
  </g>
  <g>
    <path d="M121.5,1400 H121.5 A47.5,47.5 0 0 1 169,1447.5 V1447.5 A47.5,47.5 0 0 1 121.5,1495 H121.5 A47.5,47.5 0 0 1 74,1447.5 V1447.5 A47.5,47.5 0 0 1 121.5,1400 Z" fill="#324B47" fill-opacity="1" stroke="#3B72A8" stroke-width="1.5" stroke-opacity="1"/>
    <text x="77" y="1412" font-family="system-ui, sans-serif" font-size="9" fill="#3B72A8">#FF324B47</text>
  </g>
  <g>
    <rect x="74" y="1400" width="95" height="95" fill="none" fill-opacity="0" stroke="#A85B6B" stroke-width="1" stroke-opacity="0.5"/>
  </g>
  <g>
    <rect x="95" y="1421" width="53" height="53" fill="none" fill-opacity="0" stroke="#4F8A4A" stroke-width="1" stroke-opacity="0.5"/>
  </g>
  <g>
    <rect x="201" y="1398" width="242" height="99" fill="none" fill-opacity="0" stroke="#3B72A8" stroke-width="1" stroke-opacity="0.5"/>
  </g>
  <g>
    <rect x="201" y="1398" width="98" height="54" fill="none" fill-opacity="0" stroke="#A85B6B" stroke-width="1" stroke-opacity="0.5"/>
  </g>
  <g>
    <rect x="201" y="1457" width="242" height="40" fill="none" fill-opacity="0" stroke="#A85B6B" stroke-width="1" stroke-opacity="0.5"/>
  </g>
  <g>
    <rect x="42" y="1566" width="994" height="126" fill="none" fill-opacity="0" stroke="#7A7A33" stroke-width="1" stroke-opacity="0.5"/>
  </g>
  <g>
    <rect x="42" y="1606" width="730" height="47" fill="none" fill-opacity="0" stroke="#5B6470" stroke-width="1" stroke-opacity="0.5"/>
  </g>
  <g>
    <path d="M793,1587 H962 A21,21 0 0 1 983,1608 V1650 A21,21 0 0 1 962,1671 H793 A21,21 0 0 1 772,1650 V1608 A21,21 0 0 1 793,1587 Z" fill="#324B47" fill-opacity="1" stroke="#000000" stroke-width="1.5" stroke-opacity="1"/>
    <text x="775" y="1599" font-family="system-ui, sans-serif" font-size="9" fill="#000000">#FF324B47</text>
  </g>
  <g>
    <rect x="793" y="1587" width="169" height="84" fill="none" fill-opacity="0" stroke="#2E7D6B" stroke-width="1" stroke-opacity="0.5"/>
  </g>
  <g>
    <rect x="814" y="1606" width="127" height="47" fill="none" fill-opacity="0" stroke="#8E6BA8" stroke-width="1" stroke-opacity="0.5"/>
  </g>
  <g>
    <rect x="814" y="1606" width="127" height="47" fill="none" fill-opacity="0" stroke="#B0813B" stroke-width="1" stroke-opacity="0.5"/>
  </g>
  <g>
    <rect x="983" y="1603" width="53" height="53" fill="none" fill-opacity="0" stroke="#5B6470" stroke-width="1" stroke-opacity="0.5"/>
  </g>
  <g>
    <rect x="42" y="1735" width="324" height="82" fill="none" fill-opacity="0" stroke="#7A7A33" stroke-width="1" stroke-opacity="0.5"/>
  </g>
  <g>
    <rect x="42" y="1735" width="324" height="82" fill="none" fill-opacity="0" stroke="#5B6470" stroke-width="1" stroke-opacity="0.5"/>
  </g>
  <g>
    <rect x="42" y="1756" width="324" height="40" fill="none" fill-opacity="0" stroke="#2E7D6B" stroke-width="1" stroke-opacity="0.5"/>
  </g>
  <g>
    <rect x="42" y="1860" width="994" height="126" fill="none" fill-opacity="0" stroke="#7A7A33" stroke-width="1" stroke-opacity="0.5"/>
  </g>
  <g>
    <rect x="42" y="1900" width="730" height="47" fill="none" fill-opacity="0" stroke="#5B6470" stroke-width="1" stroke-opacity="0.5"/>
  </g>
  <g>
    <path d="M793,1881 H962 A21,21 0 0 1 983,1902 V1944 A21,21 0 0 1 962,1965 H793 A21,21 0 0 1 772,1944 V1902 A21,21 0 0 1 793,1881 Z" fill="#324B47" fill-opacity="1" stroke="#000000" stroke-width="1.5" stroke-opacity="1"/>
    <text x="775" y="1893" font-family="system-ui, sans-serif" font-size="9" fill="#000000">#FF324B47</text>
  </g>
  <g>
    <rect x="793" y="1881" width="169" height="84" fill="none" fill-opacity="0" stroke="#2E7D6B" stroke-width="1" stroke-opacity="0.5"/>
  </g>
  <g>
    <rect x="814" y="1900" width="127" height="47" fill="none" fill-opacity="0" stroke="#8E6BA8" stroke-width="1" stroke-opacity="0.5"/>
  </g>
  <g>
    <rect x="814" y="1900" width="127" height="47" fill="none" fill-opacity="0" stroke="#B0813B" stroke-width="1" stroke-opacity="0.5"/>
  </g>
  <g>
    <rect x="983" y="1897" width="53" height="53" fill="none" fill-opacity="0" stroke="#5B6470" stroke-width="1" stroke-opacity="0.5"/>
  </g>
  <g>
    <rect x="42" y="2029" width="381" height="82" fill="none" fill-opacity="0" stroke="#7A7A33" stroke-width="1" stroke-opacity="0.5"/>
  </g>
  <g>
    <rect x="42" y="2029" width="381" height="82" fill="none" fill-opacity="0" stroke="#5B6470" stroke-width="1" stroke-opacity="0.5"/>
  </g>
  <g>
    <rect x="42" y="2050" width="381" height="40" fill="none" fill-opacity="0" stroke="#2E7D6B" stroke-width="1" stroke-opacity="0.5"/>
  </g>
  <g>
    <rect x="42" y="2143" width="42" height="42" fill="none" fill-opacity="0" stroke="#7A7A33" stroke-width="1" stroke-opacity="0.5"/>
  </g>
  <g>
    <rect x="0" y="0" width="1078" height="168" fill="none" fill-opacity="0" stroke="#A85B6B" stroke-width="1" stroke-opacity="0.5"/>
  </g>
  <g>
    <rect x="0" y="0" width="1078" height="168" fill="none" fill-opacity="0" stroke="#4F8A4A" stroke-width="1" stroke-opacity="0.5"/>
  </g>
  <g>
    <rect x="0" y="0" width="1078" height="168" fill="none" fill-opacity="0" stroke="#7A7A33" stroke-width="1" stroke-opacity="0.5"/>
  </g>
  <g>
    <rect x="43" y="51" width="316" height="66" fill="none" fill-opacity="0" stroke="#5B6470" stroke-width="1" stroke-opacity="0.5"/>
  </g>
  <g>
    <rect x="43" y="51" width="316" height="66" fill="none" fill-opacity="0" stroke="#2E7D6B" stroke-width="1" stroke-opacity="0.5"/>
  </g>
  <g>
    <rect x="689" y="21" width="378" height="126" fill="none" fill-opacity="0" stroke="#5B6470" stroke-width="1" stroke-opacity="0.5"/>
  </g>
  <g>
    <rect x="689" y="21" width="378" height="126" fill="none" fill-opacity="0" stroke="#2E7D6B" stroke-width="1" stroke-opacity="0.5"/>
  </g>
  <g>
    <rect x="689" y="21" width="126" height="126" fill="none" fill-opacity="0" stroke="#8E6BA8" stroke-width="1" stroke-opacity="0.5"/>
  </g>
  <g>
    <path d="M752.5,32 H752.5 A52.5,52.5 0 0 1 805,84.5 V84.5 A52.5,52.5 0 0 1 752.5,137 H752.5 A52.5,52.5 0 0 1 700,84.5 V84.5 A52.5,52.5 0 0 1 752.5,32 Z" fill="none" fill-opacity="0" stroke="#B0813B" stroke-width="1.5" stroke-opacity="1"/>
  </g>
  <g>
    <rect x="721" y="53" width="63" height="63" fill="none" fill-opacity="0" stroke="#3B72A8" stroke-width="1" stroke-opacity="0.5"/>
  </g>
  <g>
    <path d="M878.5,32 H878.5 A52.5,52.5 0 0 1 931,84.5 V84.5 A52.5,52.5 0 0 1 878.5,137 H878.5 A52.5,52.5 0 0 1 826,84.5 V84.5 A52.5,52.5 0 0 1 878.5,32 Z" fill="none" fill-opacity="0" stroke="#8E6BA8" stroke-width="1.5" stroke-opacity="1"/>
  </g>
  <g>
    <rect x="847" y="53" width="63" height="63" fill="none" fill-opacity="0" stroke="#B0813B" stroke-width="1" stroke-opacity="0.5"/>
  </g>
  <g>
    <path d="M1004.5,32 H1004.5 A52.5,52.5 0 0 1 1057,84.5 V84.5 A52.5,52.5 0 0 1 1004.5,137 H1004.5 A52.5,52.5 0 0 1 952,84.5 V84.5 A52.5,52.5 0 0 1 1004.5,32 Z" fill="none" fill-opacity="0" stroke="#8E6BA8" stroke-width="1.5" stroke-opacity="1"/>
  </g>
  <g>
    <rect x="973" y="53" width="63" height="63" fill="none" fill-opacity="0" stroke="#B0813B" stroke-width="1" stroke-opacity="0.5"/>
  </g>
  <g>
    <rect x="42" y="0" width="994" height="63" fill="#000000" fill-opacity="0.439" stroke="#8E6BA8" stroke-width="1.5" stroke-opacity="1"/>
    <text x="45" y="12" font-family="system-ui, sans-serif" font-size="9" fill="#8E6BA8">#70000000  pad ·</text>
  </g>
  <g>
    <rect x="42" y="10" width="63" height="43" fill="none" fill-opacity="0" stroke="#B0813B" stroke-width="1" stroke-opacity="0.5"/>
  </g>
  <g>
    <rect x="994" y="21" width="42" height="21" fill="none" fill-opacity="0" stroke="#B0813B" stroke-width="1" stroke-opacity="0.5"/>
  </g>
  <g>
    <rect x="0" y="2336" width="1078" height="63" fill="#000000" fill-opacity="0.439" stroke="#8E6BA8" stroke-width="1.5" stroke-opacity="1"/>
    <text x="3" y="2348" font-family="system-ui, sans-serif" font-size="9" fill="#8E6BA8">#70000000</text>
  </g>
  <g>
    <path d="M402.25,2368 H675.75 A5.25,5.25 0 0 1 681,2373.25 V2373.75 A5.25,5.25 0 0 1 675.75,2379 H402.25 A5.25,5.25 0 0 1 397,2373.75 V2373.25 A5.25,5.25 0 0 1 402.25,2368 Z" fill="#EBEBEB" fill-opacity="1" stroke="#B0813B" stroke-width="1.5" stroke-opacity="1"/>
    <text x="400" y="2380" font-family="system-ui, sans-serif" font-size="9" fill="#B0813B">#FFEBEBEB  pad ·</text>
  </g>
</svg>
