<svg xmlns="http://www.w3.org/2000/svg" viewBox="0 0 1076 2396" width="1076" height="2396" role="img" aria-label="Scanner/Tcp layout wireframe">
  <title>Scanner/Tcp — layout wireframe (slots + tokens)</title>
  <rect width="1076" height="2396" fill="#ffffff"/>
  <g>
    <rect x="0" y="0" width="1076" height="2396" fill="none" fill-opacity="0" stroke="#5B6470" stroke-width="1" stroke-opacity="0.5"/>
  </g>
  <g>
    <rect x="0" y="0" width="1076" height="2396" fill="none" fill-opacity="0" stroke="#2E7D6B" stroke-width="1" stroke-opacity="0.5"/>
  </g>
  <g>
    <rect x="0" y="0" width="1076" height="2396" fill="#F4FBF8" fill-opacity="1" stroke="#8E6BA8" stroke-width="1.5" stroke-opacity="1"/>
    <text x="3" y="12" font-family="system-ui, sans-serif" font-size="9" fill="#8E6BA8">#FFF4FBF8</text>
  </g>
  <g>
    <rect x="0" y="0" width="1076" height="2396" fill="none" fill-opacity="0" stroke="#B0813B" stroke-width="1" stroke-opacity="0.5"/>
  </g>
  <g>
    <rect x="0" y="0" width="1076" height="2396" fill="none" fill-opacity="0" stroke="#3B72A8" stroke-width="1" stroke-opacity="0.5"/>
  </g>
  <g>
    <rect x="0" y="168" width="1076" height="2228" fill="none" fill-opacity="0" stroke="#A85B6B" stroke-width="1" stroke-opacity="0.5"/>
  </g>
  <g>
    <rect x="0" y="168" width="1076" height="189" fill="#F4FBF8" fill-opacity="1" stroke="#4F8A4A" stroke-width="1.5" stroke-opacity="1"/>
    <text x="3" y="180" font-family="system-ui, sans-serif" font-size="9" fill="#4F8A4A">#FFF4FBF8</text>
  </g>
  <g>
    <rect x="0" y="168" width="1076" height="189" fill="none" fill-opacity="0" stroke="#7A7A33" stroke-width="1" stroke-opacity="0.5"/>
  </g>
  <g>
    <rect x="0" y="168" width="269" height="189" fill="none" fill-opacity="0" stroke="#5B6470" stroke-width="1" stroke-opacity="0.5"/>
  </g>
  <g>
    <rect x="37" y="168" width="195" height="189" fill="none" fill-opacity="0" stroke="#2E7D6B" stroke-width="1" stroke-opacity="0.5"/>
  </g>
  <g>
    <rect x="79" y="276" width="111" height="47" fill="none" fill-opacity="0" stroke="#8E6BA8" stroke-width="1" stroke-opacity="0.5"/>
  </g>
  <g>
    <rect x="79" y="276" width="111" height="47" fill="none" fill-opacity="0" stroke="#B0813B" stroke-width="1" stroke-opacity="0.5"/>
  </g>
  <g>
    <rect x="108" y="206" width="53" height="53" fill="none" fill-opacity="0" stroke="#8E6BA8" stroke-width="1" stroke-opacity="0.5"/>
  </g>
  <g>
    <rect x="108" y="206" width="53" height="53" fill="none" fill-opacity="0" stroke="#B0813B" stroke-width="1" stroke-opacity="0.5"/>
  </g>
  <g>
    <rect x="269" y="168" width="269" height="189" fill="none" fill-opacity="0" stroke="#5B6470" stroke-width="1" stroke-opacity="0.5"/>
  </g>
  <g>
    <rect x="328" y="168" width="152" height="189" fill="none" fill-opacity="0" stroke="#2E7D6B" stroke-width="1" stroke-opacity="0.5"/>
  </g>
  <g>
    <rect x="370" y="276" width="68" height="47" fill="none" fill-opacity="0" stroke="#8E6BA8" stroke-width="1" stroke-opacity="0.5"/>
  </g>
  <g>
    <rect x="370" y="276" width="68" height="47" fill="none" fill-opacity="0" stroke="#B0813B" stroke-width="1" stroke-opacity="0.5"/>
  </g>
  <g>
    <rect x="377" y="206" width="53" height="53" fill="none" fill-opacity="0" stroke="#8E6BA8" stroke-width="1" stroke-opacity="0.5"/>
  </g>
  <g>
    <rect x="377" y="206" width="53" height="53" fill="none" fill-opacity="0" stroke="#B0813B" stroke-width="1" stroke-opacity="0.5"/>
  </g>
  <g>
    <rect x="538" y="168" width="269" height="189" fill="none" fill-opacity="0" stroke="#5B6470" stroke-width="1" stroke-opacity="0.5"/>
  </g>
  <g>
    <rect x="594" y="168" width="157" height="189" fill="none" fill-opacity="0" stroke="#2E7D6B" stroke-width="1" stroke-opacity="0.5"/>
  </g>
  <g>
    <rect x="636" y="276" width="73" height="47" fill="none" fill-opacity="0" stroke="#8E6BA8" stroke-width="1" stroke-opacity="0.5"/>
  </g>
  <g>
    <rect x="636" y="276" width="73" height="47" fill="none" fill-opacity="0" stroke="#B0813B" stroke-width="1" stroke-opacity="0.5"/>
  </g>
  <g>
    <rect x="646" y="206" width="53" height="53" fill="none" fill-opacity="0" stroke="#8E6BA8" stroke-width="1" stroke-opacity="0.5"/>
  </g>
  <g>
    <rect x="646" y="206" width="53" height="53" fill="none" fill-opacity="0" stroke="#B0813B" stroke-width="1" stroke-opacity="0.5"/>
  </g>
  <g>
    <rect x="807" y="168" width="269" height="189" fill="none" fill-opacity="0" stroke="#5B6470" stroke-width="1" stroke-opacity="0.5"/>
  </g>
  <g>
    <rect x="865" y="168" width="153" height="189" fill="none" fill-opacity="0" stroke="#2E7D6B" stroke-width="1" stroke-opacity="0.5"/>
  </g>
  <g>
    <rect x="907" y="276" width="69" height="47" fill="none" fill-opacity="0" stroke="#8E6BA8" stroke-width="1" stroke-opacity="0.5"/>
  </g>
  <g>
    <rect x="907" y="276" width="69" height="47" fill="none" fill-opacity="0" stroke="#B0813B" stroke-width="1" stroke-opacity="0.5"/>
  </g>
  <g>
    <rect x="915" y="206" width="53" height="53" fill="none" fill-opacity="0" stroke="#8E6BA8" stroke-width="1" stroke-opacity="0.5"/>
  </g>
  <g>
    <rect x="915" y="206" width="53" height="53" fill="none" fill-opacity="0" stroke="#B0813B" stroke-width="1" stroke-opacity="0.5"/>
  </g>
  <g>
    <rect x="0" y="354" width="1076" height="3" fill="none" fill-opacity="0" stroke="#5B6470" stroke-width="1" stroke-opacity="0.5"/>
  </g>
  <g>
    <path d="M911,349 H972 A4,4 0 0 1 976,353 V353 A4,4 0 0 1 972,357 H911 A4,4 0 0 1 907,353 V353 A4,4 0 0 1 911,349 Z" fill="#006A60" fill-opacity="1" stroke="#5B6470" stroke-width="1.5" stroke-opacity="1"/>
    <text x="910" y="361" font-family="system-ui, sans-serif" font-size="9" fill="#5B6470">#FF006A60</text>
  </g>
  <g>
    <rect x="42" y="399" width="992" height="1955" fill="none" fill-opacity="0" stroke="#4F8A4A" stroke-width="1" stroke-opacity="0.5"/>
  </g>
  <g>
    <path d="M73.5,399 H1002.5 A31.5,31.5 0 0 1 1034,430.5 V1072.5 A31.5,31.5 0 0 1 1002.5,1104 H73.5 A31.5,31.5 0 0 1 42,1072.5 V430.5 A31.5,31.5 0 0 1 73.5,399 Z" fill="#E8EFEC" fill-opacity="1" stroke="#7A7A33" stroke-width="1.5" stroke-opacity="1"/>
    <text x="45" y="411" font-family="system-ui, sans-serif" font-size="9" fill="#7A7A33">#FFE8EFEC</text>
  </g>
  <g>
    <rect x="42" y="399" width="992" height="705" fill="none" fill-opacity="0" stroke="#5B6470" stroke-width="1" stroke-opacity="0.5"/>
  </g>
  <g>
    <rect x="84" y="441" width="908" height="621" fill="none" fill-opacity="0" stroke="#2E7D6B" stroke-width="1" stroke-opacity="0.5"/>
  </g>
  <g>
    <rect x="84" y="441" width="444" height="63" fill="none" fill-opacity="0" stroke="#8E6BA8" stroke-width="1" stroke-opacity="0.5"/>
  </g>
  <g>
    <rect x="84" y="441" width="63" height="63" fill="none" fill-opacity="0" stroke="#B0813B" stroke-width="1" stroke-opacity="0.5"/>
  </g>
  <g>
    <rect x="147" y="462" width="21" height="21" fill="none" fill-opacity="0" stroke="#B0813B" stroke-width="1" stroke-opacity="0.5"/>
  </g>
  <g>
    <rect x="168" y="449" width="360" height="47" fill="none" fill-opacity="0" stroke="#B0813B" stroke-width="1" stroke-opacity="0.5"/>
  </g>
  <g>
    <rect x="84" y="557" width="908" height="147" fill="none" fill-opacity="0" stroke="#8E6BA8" stroke-width="1" stroke-opacity="0.5"/>
  </g>
  <g>
    <rect x="84" y="557" width="908" height="147" fill="none" fill-opacity="0" stroke="#B0813B" stroke-width="1" stroke-opacity="0.5"/>
  </g>
  <g>
    <rect x="84" y="557" width="908" height="147" fill="none" fill-opacity="0" stroke="#3B72A8" stroke-width="1" stroke-opacity="0.5"/>
  </g>
  <g>
    <rect x="84" y="557" width="908" height="147" fill="none" fill-opacity="0" stroke="#A85B6B" stroke-width="1" stroke-opacity="0.5"/>
  </g>
  <g>
    <path d="M94.5,557 H981.5 A10.5,10.5 0 0 1 992,567.5 V693.5 A10.5,10.5 0 0 1 981.5,704 H94.5 A10.5,10.5 0 0 1 84,693.5 V567.5 A10.5,10.5 0 0 1 94.5,557 Z" fill="none" fill-opacity="0" stroke="#6F7976" stroke-width="1.5" stroke-opacity="1"/>
    <text x="87" y="569" font-family="system-ui, sans-serif" font-size="9" fill="#6F7976">◻ #FF6F7976</text>
  </g>
  <g>
    <rect x="126" y="536" width="73" height="42" fill="none" fill-opacity="0" stroke="#A85B6B" stroke-width="1" stroke-opacity="0.5"/>
  </g>
  <g>
    <rect x="126" y="536" width="73" height="42" fill="none" fill-opacity="0" stroke="#4F8A4A" stroke-width="1" stroke-opacity="0.5"/>
  </g>
  <g>
    <rect x="126" y="599" width="824" height="63" fill="none" fill-opacity="0" stroke="#A85B6B" stroke-width="1" stroke-opacity="0.5"/>
  </g>
  <g>
    <rect x="126" y="599" width="824" height="63" fill="none" fill-opacity="0" stroke="#4F8A4A" stroke-width="1" stroke-opacity="0.5"/>
  </g>
  <g>
    <rect x="126" y="599" width="824" height="63" fill="none" fill-opacity="0" stroke="#7A7A33" stroke-width="1" stroke-opacity="0.5"/>
  </g>
  <g>
    <rect x="84" y="757" width="908" height="147" fill="none" fill-opacity="0" stroke="#8E6BA8" stroke-width="1" stroke-opacity="0.5"/>
  </g>
  <g>
    <rect x="84" y="757" width="908" height="147" fill="none" fill-opacity="0" stroke="#B0813B" stroke-width="1" stroke-opacity="0.5"/>
  </g>
  <g>
    <rect x="84" y="757" width="908" height="147" fill="none" fill-opacity="0" stroke="#3B72A8" stroke-width="1" stroke-opacity="0.5"/>
  </g>
  <g>
    <rect x="84" y="757" width="908" height="147" fill="none" fill-opacity="0" stroke="#A85B6B" stroke-width="1" stroke-opacity="0.5"/>
  </g>
  <g>
    <path d="M94.5,757 H981.5 A10.5,10.5 0 0 1 992,767.5 V893.5 A10.5,10.5 0 0 1 981.5,904 H94.5 A10.5,10.5 0 0 1 84,893.5 V767.5 A10.5,10.5 0 0 1 94.5,757 Z" fill="none" fill-opacity="0" stroke="#6F7976" stroke-width="1.5" stroke-opacity="1"/>
    <text x="87" y="769" font-family="system-ui, sans-serif" font-size="9" fill="#6F7976">◻ #FF6F7976</text>
  </g>
  <g>
    <rect x="126" y="736" width="68" height="42" fill="none" fill-opacity="0" stroke="#A85B6B" stroke-width="1" stroke-opacity="0.5"/>
  </g>
  <g>
    <rect x="126" y="736" width="68" height="42" fill="none" fill-opacity="0" stroke="#4F8A4A" stroke-width="1" stroke-opacity="0.5"/>
  </g>
  <g>
    <rect x="126" y="799" width="824" height="63" fill="none" fill-opacity="0" stroke="#A85B6B" stroke-width="1" stroke-opacity="0.5"/>
  </g>
  <g>
    <rect x="126" y="799" width="824" height="63" fill="none" fill-opacity="0" stroke="#4F8A4A" stroke-width="1" stroke-opacity="0.5"/>
  </g>
  <g>
    <rect x="126" y="799" width="824" height="63" fill="none" fill-opacity="0" stroke="#7A7A33" stroke-width="1" stroke-opacity="0.5"/>
  </g>
  <g>
    <path d="M136.5,947 H939.5 A52.5,52.5 0 0 1 992,999.5 V999.5 A52.5,52.5 0 0 1 939.5,1052 H136.5 A52.5,52.5 0 0 1 84,999.5 V999.5 A52.5,52.5 0 0 1 136.5,947 Z" fill="#006A60" fill-opacity="1" stroke="#8E6BA8" stroke-width="1.5" stroke-opacity="1"/>
    <text x="87" y="959" font-family="system-ui, sans-serif" font-size="9" fill="#8E6BA8">#FF006A60</text>
  </g>
  <g>
    <rect x="147" y="968" width="782" height="63" fill="none" fill-opacity="0" stroke="#B0813B" stroke-width="1" stroke-opacity="0.5"/>
  </g>
  <g>
    <rect x="461" y="973" width="154" height="53" fill="none" fill-opacity="0" stroke="#3B72A8" stroke-width="1" stroke-opacity="0.5"/>
  </g>
  <g>
    <rect x="0" y="0" width="1076" height="168" fill="none" fill-opacity="0" stroke="#3B72A8" stroke-width="1" stroke-opacity="0.5"/>
  </g>
  <g>
    <rect x="0" y="0" width="1076" height="168" fill="none" fill-opacity="0" stroke="#A85B6B" stroke-width="1" stroke-opacity="0.5"/>
  </g>
  <g>
    <rect x="0" y="0" width="1076" height="168" fill="none" fill-opacity="0" stroke="#4F8A4A" stroke-width="1" stroke-opacity="0.5"/>
  </g>
  <g>
    <rect x="43" y="48" width="333" height="72" fill="none" fill-opacity="0" stroke="#7A7A33" stroke-width="1" stroke-opacity="0.5"/>
  </g>
  <g>
    <rect x="43" y="48" width="333" height="72" fill="none" fill-opacity="0" stroke="#5B6470" stroke-width="1" stroke-opacity="0.5"/>
  </g>
  <g>
    <rect x="813" y="21" width="252" height="126" fill="none" fill-opacity="0" stroke="#7A7A33" stroke-width="1" stroke-opacity="0.5"/>
  </g>
  <g>
    <rect x="813" y="21" width="252" height="126" fill="none" fill-opacity="0" stroke="#5B6470" stroke-width="1" stroke-opacity="0.5"/>
  </g>
  <g>
    <path d="M876.5,32 H876.5 A52.5,52.5 0 0 1 929,84.5 V84.5 A52.5,52.5 0 0 1 876.5,137 H876.5 A52.5,52.5 0 0 1 824,84.5 V84.5 A52.5,52.5 0 0 1 876.5,32 Z" fill="none" fill-opacity="0" stroke="#2E7D6B" stroke-width="1.5" stroke-opacity="1"/>
  </g>
  <g>
    <rect x="845" y="53" width="63" height="63" fill="none" fill-opacity="0" stroke="#8E6BA8" stroke-width="1" stroke-opacity="0.5"/>
  </g>
  <g>
    <path d="M1002.5,32 H1002.5 A52.5,52.5 0 0 1 1055,84.5 V84.5 A52.5,52.5 0 0 1 1002.5,137 H1002.5 A52.5,52.5 0 0 1 950,84.5 V84.5 A52.5,52.5 0 0 1 1002.5,32 Z" fill="none" fill-opacity="0" stroke="#2E7D6B" stroke-width="1.5" stroke-opacity="1"/>
  </g>
  <g>
    <rect x="971" y="53" width="63" height="63" fill="none" fill-opacity="0" stroke="#8E6BA8" stroke-width="1" stroke-opacity="0.5"/>
  </g>
</svg>
