<svg xmlns="http://www.w3.org/2000/svg" viewBox="0 0 945 854" width="945" height="854" role="img" aria-label="Theme/Material3-Dark layout wireframe">
  <title>Theme/Material3-Dark — layout wireframe (slots + tokens)</title>
  <rect width="945" height="854" fill="#ffffff"/>
  <g>
    <rect x="0" y="0" width="945" height="854" fill="none" fill-opacity="0" stroke="#5B6470" stroke-width="1" stroke-opacity="0.5"/>
  </g>
  <g>
    <rect x="0" y="0" width="945" height="854" fill="none" fill-opacity="0" stroke="#2E7D6B" stroke-width="1" stroke-opacity="0.5"/>
  </g>
  <g>
    <rect x="0" y="0" width="945" height="854" fill="#141218" fill-opacity="1" stroke="#8E6BA8" stroke-width="1.5" stroke-opacity="1"/>
    <text x="3" y="12" font-family="system-ui, sans-serif" font-size="9" fill="#8E6BA8">#FF141218</text>
  </g>
  <g>
    <rect x="42" y="42" width="861" height="770" fill="none" fill-opacity="0" stroke="#B0813B" stroke-width="1" stroke-opacity="0.5"/>
  </g>
  <g>
    <rect x="42" y="42" width="538" height="116" fill="none" fill-opacity="0" stroke="#3B72A8" stroke-width="1" stroke-opacity="0.5"/>
  </g>
  <g>
    <rect x="42" y="42" width="254" height="74" fill="none" fill-opacity="0" stroke="#A85B6B" stroke-width="1" stroke-opacity="0.5"/>
  </g>
  <g>
    <rect x="42" y="116" width="538" height="42" fill="none" fill-opacity="0" stroke="#A85B6B" stroke-width="1" stroke-opacity="0.5"/>
  </g>
  <g>
    <rect x="42" y="190" width="861" height="105" fill="none" fill-opacity="0" stroke="#3B72A8" stroke-width="1" stroke-opacity="0.5"/>
  </g>
  <g>
    <path d="M63,190 H147 A21,21 0 0 1 168,211 V274 A21,21 0 0 1 147,295 H63 A21,21 0 0 1 42,274 V211 A21,21 0 0 1 63,190 Z" fill="#D0BCFF" fill-opacity="1" stroke="#A85B6B" stroke-width="1.5" stroke-opacity="1"/>
    <text x="45" y="202" font-family="system-ui, sans-serif" font-size="9" fill="#A85B6B">#FFD0BCFF</text>
  </g>
  <g>
    <rect x="96" y="222" width="19" height="42" fill="none" fill-opacity="0" stroke="#4F8A4A" stroke-width="1" stroke-opacity="0.5"/>
  </g>
  <g>
    <path d="M210,190 H294 A21,21 0 0 1 315,211 V274 A21,21 0 0 1 294,295 H210 A21,21 0 0 1 189,274 V211 A21,21 0 0 1 210,190 Z" fill="#4F378B" fill-opacity="1" stroke="#A85B6B" stroke-width="1.5" stroke-opacity="1"/>
    <text x="192" y="202" font-family="system-ui, sans-serif" font-size="9" fill="#A85B6B">#FF4F378B</text>
  </g>
  <g>
    <rect x="233" y="222" width="39" height="42" fill="none" fill-opacity="0" stroke="#4F8A4A" stroke-width="1" stroke-opacity="0.5"/>
  </g>
  <g>
    <path d="M357,190 H441 A21,21 0 0 1 462,211 V274 A21,21 0 0 1 441,295 H357 A21,21 0 0 1 336,274 V211 A21,21 0 0 1 357,190 Z" fill="#CCC2DC" fill-opacity="1" stroke="#A85B6B" stroke-width="1.5" stroke-opacity="1"/>
    <text x="339" y="202" font-family="system-ui, sans-serif" font-size="9" fill="#A85B6B">#FFCCC2DC</text>
  </g>
  <g>
    <rect x="390" y="222" width="18" height="42" fill="none" fill-opacity="0" stroke="#4F8A4A" stroke-width="1" stroke-opacity="0.5"/>
  </g>
  <g>
    <path d="M504,190 H588 A21,21 0 0 1 609,211 V274 A21,21 0 0 1 588,295 H504 A21,21 0 0 1 483,274 V211 A21,21 0 0 1 504,190 Z" fill="#EFB8C8" fill-opacity="1" stroke="#A85B6B" stroke-width="1.5" stroke-opacity="1"/>
    <text x="486" y="202" font-family="system-ui, sans-serif" font-size="9" fill="#A85B6B">#FFEFB8C8</text>
  </g>
  <g>
    <rect x="537" y="222" width="18" height="42" fill="none" fill-opacity="0" stroke="#4F8A4A" stroke-width="1" stroke-opacity="0.5"/>
  </g>
  <g>
    <path d="M651,190 H735 A21,21 0 0 1 756,211 V274 A21,21 0 0 1 735,295 H651 A21,21 0 0 1 630,274 V211 A21,21 0 0 1 651,190 Z" fill="#49454F" fill-opacity="1" stroke="#A85B6B" stroke-width="1.5" stroke-opacity="1"/>
    <text x="633" y="202" font-family="system-ui, sans-serif" font-size="9" fill="#A85B6B">#FF49454F</text>
  </g>
  <g>
    <rect x="676" y="222" width="34" height="42" fill="none" fill-opacity="0" stroke="#4F8A4A" stroke-width="1" stroke-opacity="0.5"/>
  </g>
  <g>
    <path d="M798,190 H882 A21,21 0 0 1 903,211 V274 A21,21 0 0 1 882,295 H798 A21,21 0 0 1 777,274 V211 A21,21 0 0 1 798,190 Z" fill="#F2B8B5" fill-opacity="1" stroke="#A85B6B" stroke-width="1.5" stroke-opacity="1"/>
    <text x="780" y="202" font-family="system-ui, sans-serif" font-size="9" fill="#A85B6B">#FFF2B8B5</text>
  </g>
  <g>
    <rect x="832" y="222" width="17" height="42" fill="none" fill-opacity="0" stroke="#4F8A4A" stroke-width="1" stroke-opacity="0.5"/>
  </g>
  <g>
    <rect x="42" y="327" width="861" height="84" fill="none" fill-opacity="0" stroke="#3B72A8" stroke-width="1" stroke-opacity="0.5"/>
  </g>
  <g>
    <path d="M57.75,327 H157.25 A15.75,15.75 0 0 1 173,342.75 V395.25 A15.75,15.75 0 0 1 157.25,411 H57.75 A15.75,15.75 0 0 1 42,395.25 V342.75 A15.75,15.75 0 0 1 57.75,327 Z" fill="#141218" fill-opacity="1" stroke="#49454F" stroke-width="1.5" stroke-opacity="1"/>
    <text x="45" y="339" font-family="system-ui, sans-serif" font-size="9" fill="#49454F">#FF141218</text>
  </g>
  <g>
    <rect x="99" y="348" width="17" height="42" fill="none" fill-opacity="0" stroke="#4F8A4A" stroke-width="1" stroke-opacity="0.5"/>
  </g>
  <g>
    <path d="M204.75,327 H303.25 A15.75,15.75 0 0 1 319,342.75 V395.25 A15.75,15.75 0 0 1 303.25,411 H204.75 A15.75,15.75 0 0 1 189,395.25 V342.75 A15.75,15.75 0 0 1 204.75,327 Z" fill="#0F0D13" fill-opacity="1" stroke="#49454F" stroke-width="1.5" stroke-opacity="1"/>
    <text x="192" y="339" font-family="system-ui, sans-serif" font-size="9" fill="#49454F">#FF0F0D13</text>
  </g>
  <g>
    <rect x="246" y="348" width="17" height="42" fill="none" fill-opacity="0" stroke="#4F8A4A" stroke-width="1" stroke-opacity="0.5"/>
  </g>
  <g>
    <path d="M350.75,327 H449.25 A15.75,15.75 0 0 1 465,342.75 V395.25 A15.75,15.75 0 0 1 449.25,411 H350.75 A15.75,15.75 0 0 1 335,395.25 V342.75 A15.75,15.75 0 0 1 350.75,327 Z" fill="#1D1B20" fill-opacity="1" stroke="#49454F" stroke-width="1.5" stroke-opacity="1"/>
    <text x="338" y="339" font-family="system-ui, sans-serif" font-size="9" fill="#49454F">#FF1D1B20</text>
  </g>
  <g>
    <rect x="392" y="348" width="17" height="42" fill="none" fill-opacity="0" stroke="#4F8A4A" stroke-width="1" stroke-opacity="0.5"/>
  </g>
  <g>
    <path d="M496.75,327 H595.25 A15.75,15.75 0 0 1 611,342.75 V395.25 A15.75,15.75 0 0 1 595.25,411 H496.75 A15.75,15.75 0 0 1 481,395.25 V342.75 A15.75,15.75 0 0 1 496.75,327 Z" fill="#211F26" fill-opacity="1" stroke="#49454F" stroke-width="1.5" stroke-opacity="1"/>
    <text x="484" y="339" font-family="system-ui, sans-serif" font-size="9" fill="#49454F">#FF211F26</text>
  </g>
  <g>
    <rect x="538" y="348" width="17" height="42" fill="none" fill-opacity="0" stroke="#4F8A4A" stroke-width="1" stroke-opacity="0.5"/>
  </g>
  <g>
    <path d="M642.75,327 H741.25 A15.75,15.75 0 0 1 757,342.75 V395.25 A15.75,15.75 0 0 1 741.25,411 H642.75 A15.75,15.75 0 0 1 627,395.25 V342.75 A15.75,15.75 0 0 1 642.75,327 Z" fill="#2B2930" fill-opacity="1" stroke="#49454F" stroke-width="1.5" stroke-opacity="1"/>
    <text x="630" y="339" font-family="system-ui, sans-serif" font-size="9" fill="#49454F">#FF2B2930</text>
  </g>
  <g>
    <rect x="684" y="348" width="17" height="42" fill="none" fill-opacity="0" stroke="#4F8A4A" stroke-width="1" stroke-opacity="0.5"/>
  </g>
  <g>
    <path d="M788.75,327 H887.25 A15.75,15.75 0 0 1 903,342.75 V395.25 A15.75,15.75 0 0 1 887.25,411 H788.75 A15.75,15.75 0 0 1 773,395.25 V342.75 A15.75,15.75 0 0 1 788.75,327 Z" fill="#36343B" fill-opacity="1" stroke="#49454F" stroke-width="1.5" stroke-opacity="1"/>
    <text x="776" y="339" font-family="system-ui, sans-serif" font-size="9" fill="#49454F">#FF36343B</text>
  </g>
  <g>
    <rect x="830" y="348" width="17" height="42" fill="none" fill-opacity="0" stroke="#4F8A4A" stroke-width="1" stroke-opacity="0.5"/>
  </g>
  <g>
    <rect x="42" y="443" width="857" height="369" fill="none" fill-opacity="0" stroke="#3B72A8" stroke-width="1" stroke-opacity="0.5"/>
  </g>
  <g>
    <rect x="42" y="443" width="305" height="116" fill="none" fill-opacity="0" stroke="#A85B6B" stroke-width="1" stroke-opacity="0.5"/>
  </g>
  <g>
    <rect x="42" y="559" width="246" height="84" fill="none" fill-opacity="0" stroke="#A85B6B" stroke-width="1" stroke-opacity="0.5"/>
  </g>
  <g>
    <rect x="42" y="643" width="89" height="63" fill="none" fill-opacity="0" stroke="#A85B6B" stroke-width="1" stroke-opacity="0.5"/>
  </g>
  <g>
    <rect x="42" y="706" width="857" height="53" fill="none" fill-opacity="0" stroke="#A85B6B" stroke-width="1" stroke-opacity="0.5"/>
  </g>
  <g>
    <rect x="42" y="759" width="110" height="53" fill="none" fill-opacity="0" stroke="#A85B6B" stroke-width="1" stroke-opacity="0.5"/>
  </g>
</svg>
